<?xml version="1.0" encoding="UTF-8"?>
<svg width="192px" height="192px" viewBox="0 0 192 192" version="1.1" xmlns="http://www.w3.org/2000/svg" xmlns:xlink="http://www.w3.org/1999/xlink">
    <!-- Generator: Sketch 41.2 (35397) - http://www.bohemiancoding.com/sketch -->
    <title>Group 6</title>
    <desc>Created with Sketch.</desc>
    <defs>
        <rect id="path-1" x="0" y="0" width="192" height="192" rx="30"></rect>
        <linearGradient x1="71.2122601%" y1="-12.8375948%" x2="8.869973%" y2="113.398047%" id="linearGradient-3">
            <stop stop-color="#00C9FF" offset="0%"></stop>
            <stop stop-color="#92FE9D" offset="100%"></stop>
        </linearGradient>
    </defs>
    <g id="Symbols" stroke="none" stroke-width="1" fill="none" fill-rule="evenodd">
        <g id="icon-app">
            <g id="Group-6">
                <mask id="mask-2" fill="white">
                    <use xlink:href="#path-1"></use>
                </mask>
                <g id="Rectangle-6"></g>
                <rect id="Rectangle" fill="url(#linearGradient-3)" mask="url(#mask-2)" x="0" y="0" width="192" height="192"></rect>
                <path d="M56,168 C32.8392283,168 14,148.93239 14,125.490847 C14,106.628265 30.7459807,28 56,28 C81.2540193,28 98,106.628265 98,125.490847 C98,148.93239 79.1607717,168 56,168 Z M56.5,34 C38.1486111,34 20,101.665959 20,126.035288 C20,146.434333 36.3574074,163 56.5,163 C76.6425926,163 93,146.400106 93,126.035288 C93,101.665959 74.8513889,34 56.5,34 Z" id="Shape" fill="#FFFFFF" mask="url(#mask-2)"></path>
                <rect id="Rectangle-path" fill="#FFFFFF" mask="url(#mask-2)" x="54" y="84" width="6" height="118"></rect>
                <path d="M145,106 L145,84 L139,84 L139,106 L117,106 L117,112 L139,112 L139,134 L145,134 L145,112 L167,112 L167,106 L145,106 Z" id="Combined-Shape" fill="#FFFFFF" mask="url(#mask-2)"></path>
                <rect id="Rectangle-path" fill="#FFFFFF" mask="url(#mask-2)" transform="translate(64.383598, 103.383598) rotate(45.000000) translate(-64.383598, -103.383598) " x="61.6014178" y="91.4811531" width="6" height="24"></rect>
                <rect id="Rectangle-path" fill="#FFFFFF" mask="url(#mask-2)" transform="translate(65.383598, 137.383598) rotate(45.000000) translate(-65.383598, -137.383598) " x="62.6014178" y="125.481153" width="6" height="24"></rect>
                <rect id="Rectangle-path" fill="#FFFFFF" mask="url(#mask-2)" transform="translate(46.714536, 116.714536) rotate(45.000000) translate(-46.714536, -116.714536) " x="32.956315" y="113.905901" width="28" height="6"></rect>
            </g>
        </g>
    </g>
</svg>