<?xml version="1.0" encoding="UTF-8"?>
<svg width="17px" height="17px" viewBox="0 0 17 17" version="1.1" xmlns="http://www.w3.org/2000/svg" xmlns:xlink="http://www.w3.org/1999/xlink">
    <!-- Generator: Sketch 41.2 (35397) - http://www.bohemiancoding.com/sketch -->
    <title>edit</title>
    <desc>Created with Sketch.</desc>
    <defs></defs>
    <g id="Page-2" stroke="none" stroke-width="1" fill="none" fill-rule="evenodd">
        <g id="Mobile-Portrait-Copy-6" transform="translate(-152.000000, -248.000000)" fill="#000000">
            <path d="M168.506817,250.362464 L166.631503,248.487106 C166.314891,248.170487 165.876506,248 165.438121,248 C164.975381,248 164.561351,248.170487 164.244739,248.487106 L163.31926,249.412607 L163.31926,249.412607 L153.504304,259.227794 C153.479949,259.252149 153.455595,259.276504 153.455595,259.30086 C153.455595,259.30086 153.455595,259.325215 153.43124,259.325215 C153.406885,259.34957 153.406885,259.373926 153.38253,259.398281 C153.38253,259.398281 153.38253,259.398281 153.38253,259.422636 C153.38253,259.446991 153.38253,259.446991 153.358176,259.471347 L152.018666,264.366762 C151.969956,264.537249 152.018666,264.732092 152.140439,264.853868 C152.237858,264.951289 152.359632,265 152.50576,265 C152.55447,265 152.603179,265 152.627534,264.975645 L157.547189,263.611748 C157.571544,263.611748 157.571544,263.611748 157.595898,263.587393 L157.620253,263.587393 C157.644608,263.587393 157.668963,263.563037 157.693317,263.538682 C157.693317,263.538682 157.717672,263.538682 157.717672,263.514327 C157.742027,263.489971 157.766382,263.489971 157.790736,263.465616 L167.581337,253.674785 L168.506817,252.749284 C169.164394,252.116046 169.164394,251.020057 168.506817,250.362464 L168.506817,250.362464 Z M154.381074,263.441261 L153.553014,262.613181 L154.113172,260.54298 L156.451226,262.881089 L154.381074,263.441261 L154.381074,263.441261 Z M154.575912,259.568768 L163.660226,250.484241 L163.903773,250.727794 L164.731834,251.555874 L155.64752,260.640401 L154.575912,259.568768 L154.575912,259.568768 Z M157.425415,262.418338 L156.353807,261.346705 L165.438121,252.262178 L166.509729,253.333811 L157.425415,262.418338 L157.425415,262.418338 Z M167.776175,252.067335 L167.216016,252.627507 L164.366513,249.777937 L164.951026,249.19341 C165.0728,249.071633 165.243283,248.998567 165.438121,248.998567 C165.632959,248.998567 165.803442,249.071633 165.925216,249.19341 L167.80053,251.068768 C168.044077,251.361032 168.044077,251.799427 167.776175,252.067335 L167.776175,252.067335 Z" id="edit"></path>
        </g>
    </g>
</svg>