<?xml version="1.0" encoding="UTF-8"?>
<svg width="25px" height="50px" viewBox="0 0 25 50" version="1.1" xmlns="http://www.w3.org/2000/svg" xmlns:xlink="http://www.w3.org/1999/xlink">
    <!-- Generator: Sketch 41.2 (35397) - http://www.bohemiancoding.com/sketch -->
    <title>tree-red</title>
    <desc>Created with Sketch.</desc>
    <defs></defs>
    <g id="Page-2" stroke="none" stroke-width="1" fill="none" fill-rule="evenodd">
        <g id="Mobile-Portrait-Copy-5" transform="translate(-197.000000, -71.000000)">
            <g id="Group-4" transform="translate(17.000000, 44.000000)">
                <g id="Group-5">
                    <g id="tree-red" transform="translate(180.000000, 27.000000)">
                        <path d="M12.5121664,40.3248031 C5.6664206,40.3248031 0.0980150919,34.8326772 0.0980150919,28.0807087 C0.0980150919,22.6476378 5.04770888,0 12.5121664,0 C19.976624,0 24.9263178,22.6476378 24.9263178,28.0807087 C24.9263178,34.8326772 19.3579123,40.3248031 12.5121664,40.3248031 Z" id="Shape" fill="#356823"></path>
                        <path d="M12.5121664,1.61417323 C7.09344926,1.61417323 1.73460739,21.0728346 1.73460739,28.0807087 C1.73460739,33.9468504 6.56455052,38.7106299 12.5121664,38.7106299 C18.4597824,38.7106299 23.2897255,33.9370079 23.2897255,28.0807087 C23.2897255,21.0728346 17.9308836,1.61417323 12.5121664,1.61417323 Z" id="Path" fill="#F76F56"></path>
                        <rect id="Rectangle-path" fill="#356823" x="11.6938703" y="16.1318898" width="1.6365923" height="33.8681102"></rect>
                        <rect id="Rectangle-path" fill="#356823" transform="translate(14.964532, 21.777644) rotate(45.000000) translate(-14.964532, -21.777644) " x="14.1462434" y="18.3574014" width="1.63657661" height="6.84048558"></rect>
                        <rect id="Rectangle-path" fill="#356823" transform="translate(14.966195, 31.453425) rotate(45.000000) translate(-14.966195, -31.453425) " x="14.1479069" y="28.0331819" width="1.63657661" height="6.84048558"></rect>
                        <rect id="Rectangle-path" fill="#356823" transform="translate(9.651903, 25.405790) rotate(45.000000) translate(-9.651903, -25.405790) " x="5.60536712" y="24.598711" width="8.0930709" height="1.61415775"></rect>
                    </g>
                </g>
            </g>
        </g>
    </g>
</svg>